<svg xmlns="http://www.w3.org/2000/svg" version="1.1" xmlns:xlink="http://www.w3.org/1999/xlink" xmlns:svgjs="http://svgjs.com/svgjs" width="512" height="512"><svg version="1.1" id="SvgjsSvg1000" xmlns="http://www.w3.org/2000/svg" xmlns:xlink="http://www.w3.org/1999/xlink" x="0px" y="0px" viewBox="0 0 512 512" style="enable-background:new 0 0 512 512;" xml:space="preserve">
<path style="fill:#9ED368;" d="M0,256.006C0,397.402,114.606,512.004,255.996,512C397.394,512.004,512,397.402,512,256.006
	C512.009,114.61,397.394,0,255.996,0C114.606,0,0,114.614,0,256.006z"></path>
<path style="fill:#8BC052;" d="M504.093,319.331c-0.233-0.226-0.419-0.497-0.69-0.69c-0.416-0.586-203.293-203.461-203.877-203.877
	c-1.161-1.63-2.972-2.763-5.125-2.763c-16.329,0-19.2,2.868-19.2,19.2v7.771c-6.242-0.911-12.765-1.154-19.2-1.154
	c-0.111,0-0.223,0.007-0.335,0.007c-0.253-0.254-0.612-0.414-0.9-0.636c-0.429-0.557-20.276-20.405-20.833-20.833
	c-2.62-3.411-7.44-4.356-16.332-4.356c-3.535,0-6.4,2.862-6.4,6.4c0,2.155,1.134,3.966,2.764,5.126
	c0.416,0.583,9.601,9.802,10.036,10.159v8.519c-14.606,5.613-25.375,18.243-25.375,46.539c0,11.137,2.675,17.582,5.038,23.262
	c0.594,1.433,1.181,2.838,1.697,4.307c0.065,0.185,0.21,0.31,0.29,0.487c-9.212,7.799-15.612,18.659-19.337,32.602
	c-29.323,13.757-62.562,30.432-71.242,39.111c-17.497,17.492-16.743,46.719,1.675,65.143c0.258,0.258,0.567,0.437,0.83,0.69
	c0.243,0.253,0.409,0.549,0.658,0.798c0.258,0.259,155.335,155.205,155.598,155.457c0.203,0.213,0.362,0.449,0.551,0.669
	C385.718,503.364,477.371,424.354,504.093,319.331z"></path>
<path style="fill:#F4F6F9;" d="M396.928,288.512c-8.645-8.645-41.664-25.227-70.906-38.954
	c-3.749-14.114-10.229-25.062-19.561-32.907c0.051-0.122,0.14-0.214,0.185-0.34c0.515-1.462,1.1-2.863,1.694-4.293
	c2.363-5.687,5.041-12.131,5.041-23.275c0-28.297-10.771-40.928-25.381-46.541V131.2c0-2.363,0-4.787,0.115-6.282
	c1.494-0.118,3.919-0.118,6.285-0.118c3.534,0,6.4-2.863,6.4-6.4c0-3.537-2.866-6.4-6.4-6.4c-16.329,0-19.2,2.868-19.2,19.2v7.771
	c-6.242-0.91-12.765-1.152-19.2-1.152c-6.435,0-12.958,0.242-19.2,1.152V131.2c0-16.332-2.871-19.2-19.2-19.2
	c-3.534,0-6.4,2.863-6.4,6.4c0,3.537,2.866,6.4,6.4,6.4c2.366,0,4.79,0,6.285,0.118C224,126.413,224,128.837,224,131.2v11.005
	c-14.606,5.614-25.375,18.244-25.375,46.539c0,11.137,2.675,17.581,5.038,23.263c0.594,1.431,1.181,2.837,1.697,4.306
	c0.065,0.186,0.21,0.311,0.29,0.487c-9.212,7.798-15.612,18.658-19.337,32.602c-29.323,13.756-62.562,30.433-71.242,39.111
	c-17.497,17.493-16.743,46.719,1.675,65.143c8.871,8.875,20.494,13.963,32.725,14.325c0.471,0.013,0.941,0.019,1.409,0.019
	c11.838,0,22.803-4.468,31.006-12.675c2.482-2.481,5.623-6.99,9.157-12.822C205.05,377.456,229.829,400,255.687,400
	c26.194,0,50.97-22.75,64.895-58.122c3.685,6.13,6.962,10.88,9.531,13.446c8.203,8.206,19.169,12.675,31.006,12.675
	c0.468,0,0.941-0.006,1.409-0.019c12.231-0.363,23.853-5.45,32.725-14.325C413.671,335.231,414.425,306.006,396.928,288.512z
	 M215.485,207.1c-2.087-5.025-4.06-9.775-4.06-18.356c0-17.601,4.046-27.266,12.575-32.473v6.929c0,3.537,2.866,6.4,6.4,6.4
	s6.4-2.863,6.4-6.4v-11.324c5.463-0.925,11.829-1.257,19.2-1.257c7.37,0,13.737,0.332,19.2,1.257V163.2c0,3.537,2.866,6.4,6.4,6.4
	c3.534,0,6.4-2.863,6.4-6.4v-6.931c8.533,5.206,12.581,14.871,12.581,32.475c0,8.588-1.972,13.338-4.06,18.363
	c-0.342,0.822-0.645,1.651-0.972,2.471c-10.599-5.307-23.673-7.978-39.396-7.978c-15.846,0-29.005,2.708-39.651,8.089
	C216.161,208.83,215.841,207.961,215.485,207.1z M172.837,346.275c-6.01,6.013-14.154,9.056-22.985,8.912
	c-8.956-0.269-17.5-4.025-24.057-10.581c-13.428-13.431-14.181-34.538-1.675-47.044c9.181-9.181,60.359-33.694,100.175-51.462
	C206.531,285.919,182.019,337.093,172.837,346.275z M255.687,387.2c-22.821,0-45.098-23.75-56.293-59.484
	c17.863-33.404,39.963-83.943,43.275-91.567c1.05-2.413,0.515-5.219-1.344-7.075c-1.859-1.862-4.675-2.394-7.075-1.344
	c-3.49,1.516-15.998,6.982-31.716,14.165c8.806-18.881,25.82-27.495,53.62-27.495c27.794,0,44.697,8.692,53.504,27.583
	c-15.809-7.225-28.403-12.73-31.907-14.252c-2.413-1.05-5.216-0.518-7.075,1.344c-1.859,1.856-2.394,4.662-1.344,7.075
	c3.287,7.569,25.093,57.436,42.887,90.841C301.207,362.702,278.474,387.2,255.687,387.2z M386.203,344.606
	c-6.556,6.556-15.1,10.313-24.057,10.581c-8.868,0.118-16.975-2.907-22.985-8.912c-3.006-3.006-7.671-10.565-13.19-20.705
	c0.066-0.244,0.147-0.475,0.212-0.72l-0.702-0.188c-11.276-20.835-26-52.162-37.779-78.562
	c39.815,17.769,90.997,42.282,100.175,51.462C400.384,310.068,399.631,331.175,386.203,344.606z"></path>
<g>
</g>
<g>
</g>
<g>
</g>
<g>
</g>
<g>
</g>
<g>
</g>
<g>
</g>
<g>
</g>
<g>
</g>
<g>
</g>
<g>
</g>
<g>
</g>
<g>
</g>
<g>
</g>
<g>
</g>
</svg><style>@media (prefers-color-scheme: light) { :root { filter: none; } }
</style></svg>